<mxfile host="app.diagrams.net" modified="2021-05-30T16:45:41.250Z" agent="5.0 (X11; Linux x86_64) AppleWebKit/537.36 (KHTML, like Gecko) Chrome/91.0.4472.77 Safari/537.36" etag="Vn4weLT_vp3XkBc5wncJ" version="14.7.3" type="github" pages="2">
  <diagram name="Normal Flow" id="e7e014a7-5840-1c2e-5031-d8a46d1fe8dd">
    <mxGraphModel dx="2062" dy="1061" grid="1" gridSize="10" guides="1" tooltips="1" connect="1" arrows="1" fold="1" page="1" pageScale="1" pageWidth="1169" pageHeight="826" background="none" math="0" shadow="0">
      <root>
        <mxCell id="0" />
        <mxCell id="1" parent="0" />
        <mxCell id="2" value="UI-SDK" style="swimlane;whiteSpace=wrap;startSize=23;" parent="1" vertex="1">
          <mxGeometry x="165" y="30" width="280" height="690" as="geometry" />
        </mxCell>
        <mxCell id="CPrPtbFvn0tSy1YDr1JJ-43" style="edgeStyle=orthogonalEdgeStyle;rounded=0;orthogonalLoop=1;jettySize=auto;html=1;exitX=0.5;exitY=1;exitDx=0;exitDy=0;entryX=0.5;entryY=0;entryDx=0;entryDy=0;endArrow=classicThin;endFill=1;strokeColor=#000000;" edge="1" parent="2" source="5" target="7">
          <mxGeometry relative="1" as="geometry" />
        </mxCell>
        <mxCell id="5" value="" style="ellipse;shape=startState;fillColor=#000000;strokeColor=#ff0000;" parent="2" vertex="1">
          <mxGeometry x="100" y="40" width="30" height="30" as="geometry" />
        </mxCell>
        <mxCell id="7" value="invoke chess skill" style="" parent="2" vertex="1">
          <mxGeometry x="60" y="110" width="110" height="50" as="geometry" />
        </mxCell>
        <mxCell id="CPrPtbFvn0tSy1YDr1JJ-46" value="display-web-view&#xa;listen" style="" vertex="1" parent="2">
          <mxGeometry x="60" y="192" width="110" height="50" as="geometry" />
        </mxCell>
        <mxCell id="CPrPtbFvn0tSy1YDr1JJ-50" value="move query" style="" vertex="1" parent="2">
          <mxGeometry x="60" y="392" width="110" height="50" as="geometry" />
        </mxCell>
        <mxCell id="CPrPtbFvn0tSy1YDr1JJ-52" style="edgeStyle=orthogonalEdgeStyle;rounded=0;orthogonalLoop=1;jettySize=auto;html=1;exitX=0.5;exitY=1;exitDx=0;exitDy=0;entryX=0.5;entryY=0;entryDx=0;entryDy=0;endArrow=classicThin;endFill=1;strokeColor=#000000;" edge="1" parent="2" source="CPrPtbFvn0tSy1YDr1JJ-51" target="CPrPtbFvn0tSy1YDr1JJ-50">
          <mxGeometry relative="1" as="geometry" />
        </mxCell>
        <mxCell id="CPrPtbFvn0tSy1YDr1JJ-51" value="" style="ellipse;shape=startState;fillColor=#000000;strokeColor=#ff0000;" vertex="1" parent="2">
          <mxGeometry x="100" y="342" width="30" height="30" as="geometry" />
        </mxCell>
        <mxCell id="UyQgioK3aC2bR4PhsFAw-38" style="edgeStyle=orthogonalEdgeStyle;rounded=0;orthogonalLoop=1;jettySize=auto;html=1;exitX=0.5;exitY=1;exitDx=0;exitDy=0;entryX=0.5;entryY=0;entryDx=0;entryDy=0;endArrow=classicThin;endFill=1;strokeColor=#000000;" edge="1" parent="2" source="CPrPtbFvn0tSy1YDr1JJ-56" target="38">
          <mxGeometry relative="1" as="geometry" />
        </mxCell>
        <mxCell id="CPrPtbFvn0tSy1YDr1JJ-56" value="display-web-view&#xa;listen" style="" vertex="1" parent="2">
          <mxGeometry x="60" y="472" width="110" height="50" as="geometry" />
        </mxCell>
        <mxCell id="38" value="" style="ellipse;shape=endState;fillColor=#000000;strokeColor=#ff0000" parent="2" vertex="1">
          <mxGeometry x="100" y="642" width="30" height="30" as="geometry" />
        </mxCell>
        <mxCell id="3" value="Frontend" style="swimlane;whiteSpace=wrap" parent="1" vertex="1">
          <mxGeometry x="445" y="30" width="280" height="690" as="geometry" />
        </mxCell>
        <mxCell id="CPrPtbFvn0tSy1YDr1JJ-48" value="show board" style="" vertex="1" parent="3">
          <mxGeometry x="75.5" y="260" width="110" height="50" as="geometry" />
        </mxCell>
        <mxCell id="CPrPtbFvn0tSy1YDr1JJ-58" value="update game state" style="" vertex="1" parent="3">
          <mxGeometry x="75.5" y="552" width="110" height="50" as="geometry" />
        </mxCell>
        <mxCell id="4" value="Skill" style="swimlane;whiteSpace=wrap;startSize=23;" parent="1" vertex="1">
          <mxGeometry x="725" y="30" width="280" height="690" as="geometry" />
        </mxCell>
        <mxCell id="CPrPtbFvn0tSy1YDr1JJ-42" style="edgeStyle=orthogonalEdgeStyle;rounded=0;orthogonalLoop=1;jettySize=auto;html=1;exitX=0.5;exitY=1;exitDx=0;exitDy=0;entryX=0.5;entryY=0;entryDx=0;entryDy=0;" edge="1" parent="4" source="8" target="10">
          <mxGeometry relative="1" as="geometry" />
        </mxCell>
        <mxCell id="8" value="start game" style="" parent="4" vertex="1">
          <mxGeometry x="90" y="110" width="110" height="50" as="geometry" />
        </mxCell>
        <mxCell id="10" value="create lichess.org&#xa;game" style="" parent="4" vertex="1">
          <mxGeometry x="90" y="192" width="110" height="50" as="geometry" />
        </mxCell>
        <mxCell id="CPrPtbFvn0tSy1YDr1JJ-54" value="process move at&#xa;lichess.org&#xa;&#xa;CPU player turn" style="" vertex="1" parent="4">
          <mxGeometry x="85" y="378" width="110" height="78" as="geometry" />
        </mxCell>
        <mxCell id="CPrPtbFvn0tSy1YDr1JJ-44" style="edgeStyle=orthogonalEdgeStyle;rounded=0;orthogonalLoop=1;jettySize=auto;html=1;exitX=1;exitY=0.5;exitDx=0;exitDy=0;entryX=0;entryY=0.5;entryDx=0;entryDy=0;endArrow=classicThin;endFill=1;strokeColor=#000000;" edge="1" parent="1" source="7" target="8">
          <mxGeometry relative="1" as="geometry" />
        </mxCell>
        <mxCell id="CPrPtbFvn0tSy1YDr1JJ-47" style="edgeStyle=orthogonalEdgeStyle;rounded=0;orthogonalLoop=1;jettySize=auto;html=1;exitX=0;exitY=0.5;exitDx=0;exitDy=0;entryX=1;entryY=0.5;entryDx=0;entryDy=0;endArrow=classicThin;endFill=1;strokeColor=#000000;" edge="1" parent="1" source="10" target="CPrPtbFvn0tSy1YDr1JJ-46">
          <mxGeometry relative="1" as="geometry" />
        </mxCell>
        <mxCell id="CPrPtbFvn0tSy1YDr1JJ-49" style="edgeStyle=orthogonalEdgeStyle;rounded=0;orthogonalLoop=1;jettySize=auto;html=1;exitX=0.5;exitY=1;exitDx=0;exitDy=0;endArrow=classicThin;endFill=1;strokeColor=#000000;entryX=0;entryY=0.5;entryDx=0;entryDy=0;" edge="1" parent="1" source="CPrPtbFvn0tSy1YDr1JJ-46" target="CPrPtbFvn0tSy1YDr1JJ-48">
          <mxGeometry relative="1" as="geometry">
            <mxPoint x="280.5" y="322" as="targetPoint" />
          </mxGeometry>
        </mxCell>
        <mxCell id="CPrPtbFvn0tSy1YDr1JJ-55" style="edgeStyle=orthogonalEdgeStyle;rounded=0;orthogonalLoop=1;jettySize=auto;html=1;exitX=1;exitY=0.5;exitDx=0;exitDy=0;entryX=0;entryY=0.5;entryDx=0;entryDy=0;endArrow=classicThin;endFill=1;strokeColor=#000000;" edge="1" parent="1" source="CPrPtbFvn0tSy1YDr1JJ-50" target="CPrPtbFvn0tSy1YDr1JJ-54">
          <mxGeometry relative="1" as="geometry" />
        </mxCell>
        <mxCell id="CPrPtbFvn0tSy1YDr1JJ-57" style="edgeStyle=orthogonalEdgeStyle;rounded=0;orthogonalLoop=1;jettySize=auto;html=1;exitX=0.5;exitY=1;exitDx=0;exitDy=0;endArrow=classicThin;endFill=1;strokeColor=#000000;entryX=1;entryY=0.5;entryDx=0;entryDy=0;" edge="1" parent="1" source="CPrPtbFvn0tSy1YDr1JJ-54" target="CPrPtbFvn0tSy1YDr1JJ-56">
          <mxGeometry relative="1" as="geometry">
            <mxPoint x="865.5" y="522" as="targetPoint" />
          </mxGeometry>
        </mxCell>
        <mxCell id="CPrPtbFvn0tSy1YDr1JJ-59" style="edgeStyle=orthogonalEdgeStyle;rounded=0;orthogonalLoop=1;jettySize=auto;html=1;exitX=0.5;exitY=1;exitDx=0;exitDy=0;entryX=0;entryY=0.5;entryDx=0;entryDy=0;endArrow=classicThin;endFill=1;strokeColor=#000000;" edge="1" parent="1" source="CPrPtbFvn0tSy1YDr1JJ-56" target="CPrPtbFvn0tSy1YDr1JJ-58">
          <mxGeometry relative="1" as="geometry" />
        </mxCell>
      </root>
    </mxGraphModel>
  </diagram>
  <diagram id="-tsV6Opg8atozjW8WKVO" name="Command Flow">
    <mxGraphModel dx="2062" dy="1061" grid="1" gridSize="10" guides="1" tooltips="1" connect="1" arrows="1" fold="1" page="1" pageScale="1" pageWidth="850" pageHeight="1100" math="0" shadow="0">
      <root>
        <mxCell id="fc2znDHiMACiQNrX73CC-0" />
        <mxCell id="fc2znDHiMACiQNrX73CC-1" parent="fc2znDHiMACiQNrX73CC-0" />
        <mxCell id="hRVKHVCYQiI2dMDC2-Gg-0" value="UI-SDK" style="swimlane;whiteSpace=wrap;startSize=23;" vertex="1" parent="fc2znDHiMACiQNrX73CC-1">
          <mxGeometry x="165" y="30" width="280" height="620" as="geometry" />
        </mxCell>
        <mxCell id="hRVKHVCYQiI2dMDC2-Gg-1" style="edgeStyle=orthogonalEdgeStyle;rounded=0;orthogonalLoop=1;jettySize=auto;html=1;exitX=0.5;exitY=1;exitDx=0;exitDy=0;entryX=0.5;entryY=0;entryDx=0;entryDy=0;endArrow=classicThin;endFill=1;strokeColor=#000000;" edge="1" parent="hRVKHVCYQiI2dMDC2-Gg-0" source="hRVKHVCYQiI2dMDC2-Gg-2" target="hRVKHVCYQiI2dMDC2-Gg-3">
          <mxGeometry relative="1" as="geometry" />
        </mxCell>
        <mxCell id="hRVKHVCYQiI2dMDC2-Gg-2" value="" style="ellipse;shape=startState;fillColor=#000000;strokeColor=#ff0000;" vertex="1" parent="hRVKHVCYQiI2dMDC2-Gg-0">
          <mxGeometry x="100" y="40" width="30" height="30" as="geometry" />
        </mxCell>
        <mxCell id="hRVKHVCYQiI2dMDC2-Gg-3" value="invoke chess skill" style="" vertex="1" parent="hRVKHVCYQiI2dMDC2-Gg-0">
          <mxGeometry x="60" y="110" width="110" height="50" as="geometry" />
        </mxCell>
        <mxCell id="hRVKHVCYQiI2dMDC2-Gg-4" value="display-web-view&#xa;listen" style="" vertex="1" parent="hRVKHVCYQiI2dMDC2-Gg-0">
          <mxGeometry x="60" y="192" width="110" height="50" as="geometry" />
        </mxCell>
        <mxCell id="I5mMNuPCCnHlS7OTnyWm-2" style="edgeStyle=orthogonalEdgeStyle;rounded=0;orthogonalLoop=1;jettySize=auto;html=1;exitX=0.5;exitY=1;exitDx=0;exitDy=0;entryX=0.5;entryY=0;entryDx=0;entryDy=0;endArrow=classicThin;endFill=1;strokeColor=#000000;" edge="1" parent="hRVKHVCYQiI2dMDC2-Gg-0" source="hRVKHVCYQiI2dMDC2-Gg-5" target="hRVKHVCYQiI2dMDC2-Gg-8">
          <mxGeometry relative="1" as="geometry" />
        </mxCell>
        <mxCell id="hRVKHVCYQiI2dMDC2-Gg-5" value="move command" style="" vertex="1" parent="hRVKHVCYQiI2dMDC2-Gg-0">
          <mxGeometry x="60" y="392" width="110" height="50" as="geometry" />
        </mxCell>
        <mxCell id="hRVKHVCYQiI2dMDC2-Gg-6" style="edgeStyle=orthogonalEdgeStyle;rounded=0;orthogonalLoop=1;jettySize=auto;html=1;exitX=0.5;exitY=1;exitDx=0;exitDy=0;entryX=0.5;entryY=0;entryDx=0;entryDy=0;endArrow=classicThin;endFill=1;strokeColor=#000000;" edge="1" parent="hRVKHVCYQiI2dMDC2-Gg-0" source="hRVKHVCYQiI2dMDC2-Gg-7" target="hRVKHVCYQiI2dMDC2-Gg-5">
          <mxGeometry relative="1" as="geometry" />
        </mxCell>
        <mxCell id="hRVKHVCYQiI2dMDC2-Gg-7" value="" style="ellipse;shape=startState;fillColor=#000000;strokeColor=#ff0000;" vertex="1" parent="hRVKHVCYQiI2dMDC2-Gg-0">
          <mxGeometry x="100" y="342" width="30" height="30" as="geometry" />
        </mxCell>
        <mxCell id="I5mMNuPCCnHlS7OTnyWm-3" style="edgeStyle=orthogonalEdgeStyle;rounded=0;orthogonalLoop=1;jettySize=auto;html=1;exitX=0.5;exitY=1;exitDx=0;exitDy=0;entryX=0.5;entryY=0;entryDx=0;entryDy=0;endArrow=classicThin;endFill=1;strokeColor=#000000;" edge="1" parent="hRVKHVCYQiI2dMDC2-Gg-0" source="hRVKHVCYQiI2dMDC2-Gg-8" target="hRVKHVCYQiI2dMDC2-Gg-13">
          <mxGeometry relative="1" as="geometry" />
        </mxCell>
        <mxCell id="hRVKHVCYQiI2dMDC2-Gg-8" value="listen" style="" vertex="1" parent="hRVKHVCYQiI2dMDC2-Gg-0">
          <mxGeometry x="60" y="472" width="110" height="50" as="geometry" />
        </mxCell>
        <mxCell id="hRVKHVCYQiI2dMDC2-Gg-13" value="" style="ellipse;shape=endState;fillColor=#000000;strokeColor=#ff0000" vertex="1" parent="hRVKHVCYQiI2dMDC2-Gg-0">
          <mxGeometry x="100" y="570" width="30" height="30" as="geometry" />
        </mxCell>
        <mxCell id="hRVKHVCYQiI2dMDC2-Gg-9" value="Frontend" style="swimlane;whiteSpace=wrap" vertex="1" parent="fc2znDHiMACiQNrX73CC-1">
          <mxGeometry x="445" y="30" width="280" height="620" as="geometry" />
        </mxCell>
        <mxCell id="hRVKHVCYQiI2dMDC2-Gg-10" value="show board" style="" vertex="1" parent="hRVKHVCYQiI2dMDC2-Gg-9">
          <mxGeometry x="75.5" y="260" width="110" height="50" as="geometry" />
        </mxCell>
        <mxCell id="hRVKHVCYQiI2dMDC2-Gg-12" value="POST to skill&#xa;with move" style="" vertex="1" parent="hRVKHVCYQiI2dMDC2-Gg-9">
          <mxGeometry x="75.5" y="480" width="110" height="50" as="geometry" />
        </mxCell>
        <mxCell id="0wTgfj_tj8p_IOBVcEJx-0" style="edgeStyle=orthogonalEdgeStyle;rounded=0;orthogonalLoop=1;jettySize=auto;html=1;exitX=0.5;exitY=1;exitDx=0;exitDy=0;entryX=0.5;entryY=0;entryDx=0;entryDy=0;endArrow=classicThin;endFill=1;strokeColor=#000000;" edge="1" parent="hRVKHVCYQiI2dMDC2-Gg-9" source="I5mMNuPCCnHlS7OTnyWm-0" target="hRVKHVCYQiI2dMDC2-Gg-12">
          <mxGeometry relative="1" as="geometry" />
        </mxCell>
        <mxCell id="I5mMNuPCCnHlS7OTnyWm-0" value="UI reacts to move" style="" vertex="1" parent="hRVKHVCYQiI2dMDC2-Gg-9">
          <mxGeometry x="75.5" y="392" width="110" height="50" as="geometry" />
        </mxCell>
        <mxCell id="hRVKHVCYQiI2dMDC2-Gg-14" value="Skill" style="swimlane;whiteSpace=wrap;startSize=23;" vertex="1" parent="fc2znDHiMACiQNrX73CC-1">
          <mxGeometry x="725" y="30" width="280" height="620" as="geometry" />
        </mxCell>
        <mxCell id="hRVKHVCYQiI2dMDC2-Gg-15" style="edgeStyle=orthogonalEdgeStyle;rounded=0;orthogonalLoop=1;jettySize=auto;html=1;exitX=0.5;exitY=1;exitDx=0;exitDy=0;entryX=0.5;entryY=0;entryDx=0;entryDy=0;" edge="1" parent="hRVKHVCYQiI2dMDC2-Gg-14" source="hRVKHVCYQiI2dMDC2-Gg-16" target="hRVKHVCYQiI2dMDC2-Gg-17">
          <mxGeometry relative="1" as="geometry" />
        </mxCell>
        <mxCell id="hRVKHVCYQiI2dMDC2-Gg-16" value="start game" style="" vertex="1" parent="hRVKHVCYQiI2dMDC2-Gg-14">
          <mxGeometry x="90" y="110" width="110" height="50" as="geometry" />
        </mxCell>
        <mxCell id="hRVKHVCYQiI2dMDC2-Gg-17" value="create lichess.org&#xa;game" style="" vertex="1" parent="hRVKHVCYQiI2dMDC2-Gg-14">
          <mxGeometry x="90" y="192" width="110" height="50" as="geometry" />
        </mxCell>
        <mxCell id="hRVKHVCYQiI2dMDC2-Gg-18" value="process move at&#xa;lichess.org&#xa;&#xa;CPU player turn" style="" vertex="1" parent="hRVKHVCYQiI2dMDC2-Gg-14">
          <mxGeometry x="90" y="465" width="110" height="80" as="geometry" />
        </mxCell>
        <mxCell id="hRVKHVCYQiI2dMDC2-Gg-19" style="edgeStyle=orthogonalEdgeStyle;rounded=0;orthogonalLoop=1;jettySize=auto;html=1;exitX=1;exitY=0.5;exitDx=0;exitDy=0;entryX=0;entryY=0.5;entryDx=0;entryDy=0;endArrow=classicThin;endFill=1;strokeColor=#000000;" edge="1" parent="fc2znDHiMACiQNrX73CC-1" source="hRVKHVCYQiI2dMDC2-Gg-3" target="hRVKHVCYQiI2dMDC2-Gg-16">
          <mxGeometry relative="1" as="geometry" />
        </mxCell>
        <mxCell id="hRVKHVCYQiI2dMDC2-Gg-20" style="edgeStyle=orthogonalEdgeStyle;rounded=0;orthogonalLoop=1;jettySize=auto;html=1;exitX=0;exitY=0.5;exitDx=0;exitDy=0;entryX=1;entryY=0.5;entryDx=0;entryDy=0;endArrow=classicThin;endFill=1;strokeColor=#000000;" edge="1" parent="fc2znDHiMACiQNrX73CC-1" source="hRVKHVCYQiI2dMDC2-Gg-17" target="hRVKHVCYQiI2dMDC2-Gg-4">
          <mxGeometry relative="1" as="geometry" />
        </mxCell>
        <mxCell id="hRVKHVCYQiI2dMDC2-Gg-21" style="edgeStyle=orthogonalEdgeStyle;rounded=0;orthogonalLoop=1;jettySize=auto;html=1;exitX=0.5;exitY=1;exitDx=0;exitDy=0;endArrow=classicThin;endFill=1;strokeColor=#000000;entryX=0;entryY=0.5;entryDx=0;entryDy=0;" edge="1" parent="fc2znDHiMACiQNrX73CC-1" source="hRVKHVCYQiI2dMDC2-Gg-4" target="hRVKHVCYQiI2dMDC2-Gg-10">
          <mxGeometry relative="1" as="geometry">
            <mxPoint x="280.5" y="322" as="targetPoint" />
          </mxGeometry>
        </mxCell>
        <mxCell id="I5mMNuPCCnHlS7OTnyWm-1" style="edgeStyle=orthogonalEdgeStyle;rounded=0;orthogonalLoop=1;jettySize=auto;html=1;exitX=1;exitY=0.5;exitDx=0;exitDy=0;entryX=0;entryY=0.5;entryDx=0;entryDy=0;endArrow=classicThin;endFill=1;strokeColor=#000000;" edge="1" parent="fc2znDHiMACiQNrX73CC-1" source="hRVKHVCYQiI2dMDC2-Gg-5" target="I5mMNuPCCnHlS7OTnyWm-0">
          <mxGeometry relative="1" as="geometry" />
        </mxCell>
        <mxCell id="0wTgfj_tj8p_IOBVcEJx-1" style="edgeStyle=orthogonalEdgeStyle;rounded=0;orthogonalLoop=1;jettySize=auto;html=1;exitX=1;exitY=0.5;exitDx=0;exitDy=0;entryX=0;entryY=0.5;entryDx=0;entryDy=0;endArrow=classicThin;endFill=1;strokeColor=#000000;startArrow=classicThin;startFill=1;" edge="1" parent="fc2znDHiMACiQNrX73CC-1" source="hRVKHVCYQiI2dMDC2-Gg-12" target="hRVKHVCYQiI2dMDC2-Gg-18">
          <mxGeometry relative="1" as="geometry" />
        </mxCell>
      </root>
    </mxGraphModel>
  </diagram>
</mxfile>
